<svg id="Layer_1" enable-background="new 0 0 50 50" height="512" viewBox="0 0 50 50" width="512" xmlns="http://www.w3.org/2000/svg"><g id="_x35_0"><g><g><path d="m49.0097046 22.464035-41.5099478 23.9700318-6.4500122-3.7399903-.0400391-15.1400146 5.1600342 2.9899902-5.1799927-3.0100097 12.9699708-7.4799805.0100097.0100098v-1.3099976l1.2999878-.75 3.4700308 2.0199585 9.5299683-5.539978-.0100098-3.9700318 1.3000488-.75 1.0999756.6400147 11.8499756-6.8399661 6.460022 3.7699588z" fill="#febc1f"/></g></g><g><g><g><g><g><g><path d="m38.235611 11.2762241 6.4450989 3.7454844c.5244675.3047848.8498192.952549.8524284 1.873044.0052528 1.8533669-1.2997856 4.1129074-2.9126625 5.0441017l-6.4450989-3.7454815c1.6128769-.9311943 2.9179153-3.1907368 2.9126625-5.0441027-.0026093-.920494-.327961-1.5682592-.8524284-1.8730459z" fill="#ffd651"/></g></g><g><g><path d="m45.5331421 16.8947449c-.0026093-.9204903-.3279648-1.5682449-.8524323-1.8730469l-6.4450912-3.7454824c.5244637.3048029.8498154.9525566.8524246 1.8730478.0033913 1.1956291-.5389595 2.5597887-1.3570251 3.6278114l6.4451027 3.7454815c.8180618-1.0680218 1.3604126-2.4321823 1.3570213-3.6278114z" fill="#81d672"/></g><g><path d="m37.7310181 16.7770748c-.4500427.5875587-.9832306 1.0858269-1.5556374 1.4163055l6.4450989 3.7454815c.5724068-.3304768 1.1055946-.8287468 1.5556412-1.4163055z" fill="#3db542"/></g></g><g><g><path d="m40.5419083 22.1420631-6.4450989-3.7454834c.5312767.3087463 1.2669258.2653942 2.0785675-.203207l6.4450989 3.7454815c-.8116417.4686032-1.5472908.5119534-2.0785675.2032089z" fill="#3db542"/></g></g><g><g><path d="m35.9865723 14.7978668-6.4451008-3.7454882 12.963728-7.4846125 6.4621468 3.7625105c-3.3969422 10.2857055-7.9119264 11.1983031-12.980774 7.4675902z" fill="#ffde9b"/></g></g><g><g><path d="m36.0198402 20.5409546-6.4450988-3.7454834-.0162335-5.7260571 6.445097 3.7454825z" fill="#e9e8e6"/></g></g><g><g><path d="m20.4360733 29.5382462-6.4450989-3.7454834 15.583767-8.9972916 6.4450988 3.7454834z" fill="#e9e8e6"/></g></g><g><g><path d="m34.7179871 19.7991219-6.4451008-3.7454834-.0157146-5.5441017c2.7339172.8198853 4.9864502 1.9921265 6.4450989 3.7454834z" fill="#1d2943"/></g></g><g><g><path d="m34.7022705 14.2550201-6.4451008-3.74547 1.2976151-.7491789 6.4450932 3.7454729c-.3959962.7564697-.8212891 1.1071167-1.2976075.749176z" fill="#4c5c75"/></g></g><g><g><path d="m21.7286987 27.2984772-6.4450951-3.745472 12.9892826-7.4993668 6.4451008 3.7454796c-2.8463134 5.9744568-7.5895385 7.5057373-12.9892883 7.4993592z" fill="#4c5c75"/></g></g><g><g><path d="m8.3495932 28.5309277 6.4450979 3.7454815c.5244665.3047867.8498173.9525528.8524265 1.8730469.0052547 1.853363-1.2997847 4.1129074-2.9126606 5.0441017l-6.4450984-3.7454834c1.6128755-.9311943 2.9179149-3.1907349 2.9126601-5.0441017-.0026092-.9204942-.32796-1.5682603-.8524255-1.873045z" fill="#e9e8e6"/></g></g><g><g><path d="m15.6471205 34.1494484c-.0026102-.9204903-.3279657-1.5682564-.8524265-1.8730316l-6.4450989-3.7454834c.5244741.3047752.8498163.9525433.8524256 1.8730354.0026655.9433746-.3346214 1.9916954-.8787003 2.91679l6.4451132 3.7454834c.5440788-.9250984.8813657-1.9734154.8786869-2.9167938z" fill="#81d672"/></g><g><path d="m8.3233204 33.3207588c-.5248227.8923607-1.2420382 1.6701088-2.0339608 2.1273117l6.4450994 3.7454796c.7919092-.4572029 1.5091381-1.2349472 2.0339746-2.1273079z" fill="#3db542"/></g></g><g><g><path d="m10.6558895 39.3967667-6.4451003-3.7454834c.5312786.3087425 1.2669258.2653923 2.0785694-.2032089l6.4450984 3.7454834c-.8116426.4686012-1.5472908.5119514-2.0785675.2032089z" fill="#3db542"/></g></g><g><g><g><g><g><g><g enable-background="new"><g><g><path d="m33.4384956 16.3628235c0 .5499878-.1900024.9400024-.5100098 1.1199951l-19.2700185 11.2000122c.3099976-.1900024.5100098-.5800171.5100098-1.1300049 0-.1400146-.0100098-.2800293-.0299683-.4299927-.0900269-.5200195-.3200073-1.0599976-.6300049-1.5300293-.3000488-.4500122-.6800537-.8200073-1.0800171-1.0599976-.4899902-.2800293-.9299927-.3099976-1.25-.1199951l19.2700195-11.2000132c.3199463-.1799927.7599487-.1599731 1.25.1199951.4099712.2399902.7799664.6199951 1.0799541 1.0599976.3200073.4700317.5400391 1.0200195.6300049 1.5400391.0200206.1399546.0300303.289979.0300303.4299937z" fill="#78e75a"/></g></g><g><g><path d="m12.4236574 24.5317955c.9674149.5585384 1.7485313 1.9125423 1.7453823 3.0231228-.0031509 1.1116352-.7893791 1.5607376-1.756794 1.0021992-.9674158-.5585365-1.7485313-1.9125462-1.7453804-3.0241795.0031491-1.1105823.7893763-1.559679 1.7567921-1.0011425z" fill="#a2a4a5"/></g></g></g></g></g></g></g></g></g><g><g><path d="m20.4360352 29.5383148-6.4450922-3.7454967-.0199337-7.0351429c2.7658987 1.0323792 5.2198477 2.1738586 6.4450979 3.7454834.9697876 2.271759 1.0520935 4.6110534.019928 7.0351562z" fill="#1d2943"/></g></g><g><g><path d="m7.4982615 46.4359283-6.4450903-3.7454834-.0429182-15.1386871 6.4451008 3.7454681c3.1312866 4.9228516 3.9147643 9.9386292.0429077 15.1387024z" fill="#ffd06c"/></g></g><g><g><path d="m36.0036049 14.8148966 12.9637299-7.4846129.0429192 15.138689-41.511984 23.9669556-.0429163-15.1387023c.0205078-5.7146912 5.0379639-7.6886902 12.9644766-7.4850464l.016243 5.7260666 15.5837669-8.9972916zm6.6168709 7.1239576c1.6128769-.9311943 2.9179153-3.1907349 2.9126625-5.0441017-.0052567-1.8533173-1.318821-2.6010561-2.931694-1.6698618-1.6129189.9312181-2.9171982 3.1903696-2.9119453 5.0436888.0052566 1.8533649 1.3180617 2.6014938 2.9309768 1.6702747m-29.8860188 17.2547035c1.6128759-.9311943 2.9179153-3.1907387 2.9126606-5.0441017-.0052538-1.8533173-1.318819-2.6010571-2.931694-1.6698647-1.6129179.931221-2.9171982 3.1903725-2.9119444 5.0436897.0052547 1.8533669 1.3180599 2.6014939 2.9309778 1.6702767" fill="#febc1f"/></g></g><g><g><path d="m7.4383163 31.2802029-6.4450989-3.7454815 12.9644881-7.4850502 6.4450979 3.7454815z" fill="#ffde9b"/></g></g><g><g enable-background="new"><g><g><path d="m45.9197884 17.6060867c0 1.6199951-1.2324142 3.7263699-2.6424484 4.5363674-.710022.4100342-1.3488541.3303547-1.808876.0603352l-1.0499878-.6099854c.4700317.2700195 1.1099854.2399902 1.8200073-.1699829 1.4099731-.8200073 2.5499878-2.7999878 2.5499878-4.4200439 0-.7999878-.289978-1.3699961-.75-1.6399546l1.0499878.6099854c.4600219.2700205.8213195.833291.8313293 1.6332788z" fill="#4c5c75"/></g></g><g><g><path d="m45.6084785 15.0827932c-.5999756-.3399658-1.4211044-.1808462-2.3311386.3491831-1.8099976 1.0499878-3.130455 3.3723564-3.130455 5.4523735l-.0099678.0785923c0 .3899536.0393982.7357407.1393738 1.0357285.0900269.2900391.1022072.5641651.2821999.7641163.0999756.1199951.2199707.2200317.3499756.3000488l-1-.5800171c-.1499634-.0900269-.2799683-.1900024-.3999634-.3300171-.1800537-.1900024-.3200073-.4400024-.4100342-.7399902-.0999756-.2999878-.1499634-.6400146-.1499634-1.0300293-.0100098-2.0899658 1.4599609-4.6300058 3.2699585-5.6799936.9100342-.5199585 1.7399902-.5700073 2.3400269-.2299805z" fill="#4c5c75"/></g></g><g><g><path d="m43.2666321 15.3131399c1.8121414-1.0462389 3.291172-.2033882 3.2970734 1.8788977.0059052 2.0822868-1.4635239 4.62743-3.2756615 5.6736698-1.8121376 1.0462379-3.2911682.2033863-3.2970695-1.8789005-.0059052-2.0822869 1.46352-4.62743 3.2756576-5.673667zm.0190353 6.7139521c1.4092789-.8136482 2.5528107-2.794323 2.5482216-4.4136944-.0045929-1.6202068-1.1556015-2.2752895-2.5648804-1.4616413-1.4100075.8140678-2.5528107 2.7934837-2.5482178 4.4136906.004593 1.6193695 1.1548653 2.2757129 2.5648766 1.4616451" fill="#1d2943"/></g></g></g><g enable-background="new"><g><g><path d="m16.0824718 34.8920403c0 1.6099854-1.2396946 3.6747513-2.6497288 4.4847488-.7099609.4099731-1.3842611.3560295-1.8542929.08601l-1.039978-.6099854c.460022.2700195 1.1000366.2299805 1.8099976-.1799927 1.4100342-.8099976 2.5599976-2.7900391 2.5499878-4.4100342 0-.8099976-.289978-1.3699951-.7399902-1.6399536l1.2045422.3749962c.4599609.2600098.7194623 1.0842133.7194623 1.8942109z" fill="#4c5c75"/></g></g><g><g><path d="m15.7184649 32.342804c-.5999756-.3499756-1.41716-.1441765-2.3271332.3857918-1.8099976 1.0400391-3.2157974 3.4425583-3.2057877 5.5225754 0 .7699585.1229477 1.3616524.482933 1.7616158.0776367.0948486.1815796.1765137.2845459.250061.038208.0267334.0744629.0553589.1154785.0799561l-.0700073-.039978c.0199585.0199585.0499878.039978.0700073.0499878l-1.0500488-.6099854c-.5899658-.3400269-.9499512-1.0700073-.9599609-2.1100464-.0100098-2.0799561 1.4599609-4.6300049 3.2699585-5.6699829.9200439-.5299683 1.7400513-.5800171 2.3400269-.2299805z" fill="#4c5c75"/></g></g><g><g><path d="m13.3806267 32.5678329c1.8121395-1.0462379 3.2911663-.2033844 3.2970695 1.8789024s-1.4635191 4.6274261-3.2756586 5.6736679c-1.812129 1.0462303-3.2911663.2033844-3.2970695-1.8789024s1.4635286-4.6274337 3.2756586-5.6736679zm.0190334 6.713955c1.4092798-.8136482 2.5528097-2.794323 2.5482187-4.4136925-.0045929-1.6202087-1.1555958-2.2752953-2.5648746-1.461647-1.4100027.8140678-2.5528126 2.7934837-2.5482187 4.4136925.0045909 1.6193694 1.1548729 2.275711 2.5648746 1.461647" fill="#1d2943"/></g></g></g></g><g><g><path d="m20.4160976 22.5031567-6.4450998-3.7454815 1.2968884-.7487583 6.4450998 3.7454814z" fill="#4c5c75"/></g></g><g><g><path d="m35.9998856 13.5058537.0037078 1.3090848.0162354 5.7260581-15.5837879 8.9973049-.0199433-7.0351448 1.2968884-.7487584.0157165 5.5440903 12.9892846-7.4993667-.0157204-5.5440894z" fill="#111d33"/></g></g></g></g><g><g enable-background="new"><g><g><path d="m45.5984688 17.9729519c0 .1300049-.0499878.2199707-.1199951.2600098l-4.7000122 2.7299805c-.039978-.1600342-.0599976-.3400269-.0599976-.539978 0-.2000122.0200195-.4100342.0499878-.6200562.0100098-.0599976.0200195-.1299438.0400391-.1900024l4.0800171-2.3699951c.0799561-.039978.1799927-.039978.2999878.0300293.2199706.1300048.4099731.4500121.4099731.7000121z" fill="#febc1f"/></g></g></g></g><g><g enable-background="new"><g><g><path d="m15.7184649 35.2611809c0 .1300049-.0499878.2199707-.1199951.2600098l-4.7000122 2.7299805c-.039978-.1600342-.0599976-.3400269-.0599976-.539978 0-.2000122.0200195-.4100342.0499878-.6200562.0100098-.0599976.0200195-.1299438.0400391-.1900024l4.0800171-2.3699951c.0799561-.039978.1799927-.039978.2999878.0300293.2199706.1300048.4099731.4500121.4099731.7000121z" fill="#febc1f"/></g></g></g></g></g><g><path d="m10.9682465 31.2802029c-.9692707 0-1.8319359.3780308-2.4522247 1.0177212-.6397514.6203499-1.0177813 1.4830132-1.0177813 2.4522858 0-1.9094963-1.5508089-3.4700069-3.4699459-3.4700069.9498663 0 1.8318763-.3973751 2.461926-1.0080204.6106453-.6300488 1.0080199-1.5120583 1.0080199-2.4619846 0 .9499264.3780298 1.8319359 1.0177813 2.4619846.6202888.6106452 1.482954 1.0080203 2.4522247 1.0080203z" fill="#fff"/></g></g></g></svg>